<svg width="21" height="20" viewBox="0 0 21 20" fill="none" xmlns="http://www.w3.org/2000/svg">
<path d="M10.167 0.833008C15.2295 0.833184 19.334 4.9375 19.334 10C19.3338 15.0624 15.2293 19.1668 10.167 19.167C5.10449 19.167 1.00018 15.0625 1 10C1 4.93739 5.10438 0.833008 10.167 0.833008ZM10.167 2.5C6.02486 2.5 2.66699 5.85786 2.66699 10C2.66717 14.142 6.02497 17.5 10.167 17.5C14.3089 17.4998 17.6668 14.1419 17.667 10C17.667 5.85797 14.309 2.50018 10.167 2.5ZM14.0889 7.25586L11.3447 10L14.0889 12.7441L12.9111 13.9219L10.167 11.1777L7.42285 13.9219L6.24414 12.7441L8.98828 10L6.24414 7.25586L7.42285 6.07715L10.167 8.82129L12.9111 6.07715L14.0889 7.25586Z" fill="#6F767E"/>
</svg>
