<svg width="21" height="20" viewBox="0 0 21 20" fill="none" xmlns="http://www.w3.org/2000/svg">
<path d="M10.166 3.33301C12.4389 3.33305 14.6132 4.52564 16.6387 6.48438C17.3295 7.15246 17.9547 7.86558 18.5049 8.5791C18.8369 9.00976 19.0731 9.34895 19.2021 9.55078L19.4893 10L19.2021 10.4482C19.0731 10.6501 18.8369 10.9893 18.5049 11.4199C17.9546 12.1336 17.3296 12.8474 16.6387 13.5156C14.6132 15.4744 12.4389 16.666 10.166 16.666C7.89324 16.6659 5.7197 15.4742 3.69434 13.5156C3.00335 12.8474 2.37844 12.1336 1.82812 11.4199C1.49607 10.9893 1.25996 10.6501 1.13086 10.4482L0.84375 10L1.13086 9.55078C1.25996 9.34894 1.49607 9.00974 1.82812 8.5791C2.37833 7.86557 3.00352 7.15246 3.69434 6.48438C5.71972 4.52575 7.89322 3.33314 10.166 3.33301ZM10.166 5C8.41206 5.00014 6.59779 5.99498 4.85352 7.68164C4.22505 8.2894 3.65131 8.94325 3.14746 9.59668C3.03865 9.73779 2.9386 9.8732 2.84668 10C2.93852 10.1267 3.03878 10.2614 3.14746 10.4023C3.65132 11.0558 4.22503 11.7096 4.85352 12.3174C6.59784 14.0041 8.41201 14.9999 10.166 15C11.9202 15 13.735 14.0043 15.4795 12.3174C16.1079 11.7097 16.6808 11.0557 17.1846 10.4023C17.2933 10.2613 17.3944 10.1267 17.4863 10C17.3944 9.8732 17.2934 9.73779 17.1846 9.59668C16.6808 8.94338 16.1078 8.28929 15.4795 7.68164C13.7351 5.9948 11.9201 5.00004 10.166 5ZM10.166 6.66602C12.0069 6.66608 13.5 8.15909 13.5 10C13.4998 11.8408 12.0068 13.3329 10.166 13.333C8.32535 13.3328 6.83318 11.8407 6.83301 10C6.83301 8.15918 8.32524 6.66622 10.166 6.66602ZM10.166 8.33301C9.24566 8.33315 8.5 9.07961 8.5 10C8.50018 10.9202 9.24577 11.6659 10.166 11.666C11.0864 11.666 11.8328 10.9203 11.833 10C11.833 9.07953 11.0865 8.33301 10.166 8.33301Z" fill="#6F767E"/>
</svg>
