<svg width="21" height="20" viewBox="0 0 21 20" fill="none" xmlns="http://www.w3.org/2000/svg">
<path d="M13.8633 1.66699C14.4087 1.66703 14.9315 1.88475 15.3135 2.26953L17.8975 4.85352C18.2822 5.23825 18.499 5.76059 18.499 6.30469C18.499 6.84873 18.2822 7.37018 17.8975 7.75488L8.46289 17.1865C7.88091 17.8578 7.05637 18.271 6.11133 18.3359H1.83203V17.502L1.83496 13.9893C1.90606 13.1108 2.31449 12.2941 2.9375 11.7451L12.4111 2.27051C12.7953 1.88401 13.3183 1.66699 13.8633 1.66699ZM4.0791 12.958C3.74154 13.2566 3.53268 13.6745 3.49902 14.0566V16.6699L6.05176 16.6709C6.49688 16.6394 6.91141 16.4323 7.24414 16.0518L13.5459 9.75L10.417 6.62109L4.0791 12.958ZM13.8633 3.33398C13.762 3.33398 13.6651 3.37441 13.5938 3.44629L11.5957 5.44238L14.7236 8.57129L16.7197 6.57715C16.7919 6.50501 16.832 6.40671 16.832 6.30469C16.832 6.20266 16.7918 6.10439 16.7197 6.03223L14.1328 3.44629C14.0615 3.37439 13.9646 3.33402 13.8633 3.33398Z" fill="#6F767E"/>
</svg>
