<svg width="100" height="101" viewBox="0 0 100 101" fill="none" xmlns="http://www.w3.org/2000/svg">
<rect y="0.379883" width="100" height="100" rx="50" fill="#F9F2AB"/>
<path d="M55.4319 26.5527C56.4321 26.553 57.4068 26.8679 58.218 27.4529C59.0293 28.038 59.6359 28.8634 59.9519 29.8123L61.2458 33.7009H69.0611C69.6931 33.7009 70.2991 33.952 70.746 34.3988C71.1928 34.8457 71.4438 35.4517 71.4438 36.0837C71.4438 36.7156 71.1928 37.3217 70.746 37.7685C70.2991 38.2154 69.6931 38.4664 69.0611 38.4664L69.054 38.6356L66.9881 67.5691C66.8592 69.3719 66.0521 71.0589 64.7294 72.2906C63.4066 73.5223 61.6664 74.2071 59.859 74.2074H40.1395C38.3321 74.2071 36.5919 73.5223 35.2691 72.2906C33.9464 71.0589 33.1393 69.3719 33.0104 67.5691L30.9446 38.6332L30.9374 38.4664C30.3055 38.4664 29.6994 38.2154 29.2526 37.7685C28.8057 37.3217 28.5547 36.7156 28.5547 36.0837C28.5547 35.4517 28.8057 34.8457 29.2526 34.3988C29.6994 33.952 30.3055 33.7009 30.9374 33.7009H38.7528L40.0466 29.8123C40.3628 28.863 40.9698 28.0373 41.7815 27.4523C42.5932 26.8672 43.5684 26.5525 44.569 26.5527H55.4319ZM64.2885 38.4664H35.71L37.7639 67.2283C37.8067 67.8293 38.0755 68.3917 38.5163 68.8024C38.9571 69.2131 39.5371 69.4416 40.1395 69.4419H59.859C60.4615 69.4416 61.0415 69.2131 61.4822 68.8024C61.923 68.3917 62.1918 67.8293 62.2346 67.2283L64.2885 38.4664ZM45.2338 45.6146C45.8174 45.6147 46.3807 45.8289 46.8168 46.2167C47.253 46.6045 47.5316 47.1389 47.5999 47.7185L47.6165 47.9973V59.911C47.6159 60.5183 47.3833 61.1024 46.9664 61.544C46.5495 61.9856 45.9797 62.2514 45.3734 62.287C44.7672 62.3226 44.1702 62.1253 43.7045 61.7355C43.2388 61.3457 42.9395 60.7928 42.8678 60.1898L42.8511 59.911V47.9973C42.8511 47.3654 43.1021 46.7593 43.549 46.3125C43.9958 45.8656 44.6019 45.6146 45.2338 45.6146ZM54.7647 45.6146C55.3967 45.6146 56.0027 45.8656 56.4496 46.3125C56.8964 46.7593 57.1475 47.3654 57.1475 47.9973V59.911C57.1475 60.5429 56.8964 61.149 56.4496 61.5958C56.0027 62.0427 55.3967 62.2937 54.7647 62.2937C54.1328 62.2937 53.5267 62.0427 53.0799 61.5958C52.633 61.149 52.382 60.5429 52.382 59.911V47.9973C52.382 47.3654 52.633 46.7593 53.0799 46.3125C53.5267 45.8656 54.1328 45.6146 54.7647 45.6146ZM55.4319 31.3182H44.5666L43.7732 33.7009H56.2253L55.4319 31.3182Z" fill="#4B215F"/>
</svg>
