<svg width="31" height="31" viewBox="0 0 31 31" fill="none" xmlns="http://www.w3.org/2000/svg">
<path d="M3.83333 30.8799C2.91667 30.8799 2.13222 30.5538 1.48 29.9015C0.827778 29.2493 0.501111 28.4643 0.5 27.5465V4.21322C0.5 3.29655 0.826667 2.51211 1.48 1.85988C2.13333 1.20766 2.91778 0.880994 3.83333 0.879883H27.1667C28.0833 0.879883 28.8683 1.20655 29.5217 1.85988C30.175 2.51322 30.5011 3.29766 30.5 4.21322V27.5465C30.5 28.4632 30.1739 29.2482 29.5217 29.9015C28.8694 30.5549 28.0844 30.881 27.1667 30.8799H3.83333ZM3.83333 27.5465H27.1667V4.21322H3.83333V27.5465ZM5.5 24.2132H25.5L19.25 15.8799L14.25 22.5465L10.5 17.5465L5.5 24.2132ZM9.66667 12.5465C10.3611 12.5465 10.9517 12.3038 11.4383 11.8182C11.925 11.3327 12.1678 10.7421 12.1667 10.0465C12.1656 9.35099 11.9228 8.76099 11.4383 8.27655C10.9539 7.79211 10.3633 7.54877 9.66667 7.54655C8.97 7.54433 8.38 7.78766 7.89667 8.27655C7.41333 8.76544 7.17 9.35544 7.16667 10.0465C7.16333 10.7377 7.40667 11.3282 7.89667 11.8182C8.38667 12.3082 8.97667 12.551 9.66667 12.5465Z" fill="#B9B9B9"/>
</svg>
