<svg width="20" height="19" viewBox="0 0 20 19" fill="none" xmlns="http://www.w3.org/2000/svg">
<path fill-rule="evenodd" clip-rule="evenodd" d="M19.2505 17.4395C19.6645 17.4395 20.0005 17.7755 20.0005 18.1895C20.0005 18.6035 19.6645 18.9395 19.2505 18.9395H11.9975C11.5835 18.9395 11.2475 18.6035 11.2475 18.1895C11.2475 17.7755 11.5835 17.4395 11.9975 17.4395H19.2505ZM14.6163 0.653643C14.6663 0.692643 16.3393 1.99264 16.3393 1.99264C16.9473 2.35464 17.4223 3.00164 17.6023 3.76764C17.7813 4.52564 17.6513 5.30764 17.2343 5.96864C17.2315 5.97305 17.2287 5.97741 17.2191 5.99037L17.2115 6.00038C17.1439 6.08958 16.8496 6.46164 15.3646 8.32223C15.3508 8.34661 15.3351 8.36945 15.3181 8.39164C15.293 8.42435 15.2658 8.45442 15.2367 8.4818C15.1354 8.60934 15.0284 8.74335 14.9159 8.88424L14.688 9.1697C14.2177 9.75868 13.6599 10.4571 12.9981 11.2855L12.6584 11.7106C11.3807 13.3097 9.74443 15.3572 7.64827 17.9796C7.18927 18.5516 6.50127 18.8846 5.76227 18.8936L2.12327 18.9396H2.11327C1.76627 18.9396 1.46427 18.7016 1.38327 18.3626L0.564274 14.8916C0.395274 14.1726 0.563274 13.4306 1.02427 12.8546L10.4443 1.07264C10.4483 1.06864 10.4513 1.06364 10.4553 1.05964C11.4883 -0.175357 13.3563 -0.357357 14.6163 0.653643ZM9.394 4.787L2.19527 13.7916C2.02427 14.0056 1.96127 14.2816 2.02427 14.5466L2.70527 17.4316L5.74427 17.3936C6.03327 17.3906 6.30027 17.2616 6.47727 17.0416C7.38876 15.9012 8.53433 14.4679 9.71213 12.994L10.1288 12.4726L10.5462 11.9502C11.6508 10.5679 12.7421 9.20207 13.6551 8.05886L9.394 4.787ZM11.6103 2.01664L10.331 3.615L14.5918 6.88593C15.4119 5.8587 15.9514 5.18214 16.0013 5.11764C16.1653 4.85164 16.2293 4.47564 16.1433 4.11364C16.0553 3.74264 15.8243 3.42764 15.4913 3.22664C15.4203 3.17764 13.7353 1.86964 13.6833 1.82864C13.0493 1.32064 12.1243 1.40864 11.6103 2.01664Z" fill="#4B215F"/>
</svg>
